<?xml version="1.0" encoding="UTF-8" standalone="no"?>
<svg
   xmlns:dc="http://purl.org/dc/elements/1.1/"
   xmlns:cc="http://creativecommons.org/ns#"
   xmlns:rdf="http://www.w3.org/1999/02/22-rdf-syntax-ns#"
   xmlns:svg="http://www.w3.org/2000/svg"
   xmlns="http://www.w3.org/2000/svg"
   viewBox="0 0 291 89.517578"
   height="89.517578"
   preserveAspectRatio="none"
   width="291"
   id="svg2"
   version="1.1">
  <metadata
     id="metadata8">
    <rdf:RDF>
      <cc:Work
         rdf:about="">
        <dc:format>image/svg+xml</dc:format>
        <dc:type
           rdf:resource="http://purl.org/dc/dcmitype/StillImage" />
        <dc:title></dc:title>
      </cc:Work>
    </rdf:RDF>
  </metadata>
  <defs
     id="defs6" />
  <path
     id="rect3754"
     d="M 45,0 C 20.07,0 0,20.07 0,45 0,45.24768 0.015584,45.49157 0.019531,45.73828 0.3509075,45.68118 0.6797555,45.61805 1.0136716,45.56836 1.0112816,45.37835 0.9999996,45.1906 0.9999996,45 0.9999996,20.624 20.624,1 45,1 h 0.128906 c -0.0035,-0.22905 -0.01758,-0.45564 -0.01758,-0.68555 0,-0.10554 0.0071,-0.20909 0.0078,-0.31445 z m 245.98242,44.29297 c -0.29073,0.006 -0.57897,0.0215 -0.87109,0.0215 h -0.12891 c 0.003,0.22905 0.0176,0.45565 0.0176,0.68555 0,22.13729 -16.18534,40.35212 -37.41602,43.51172 0.002,0.19066 0.0137,0.37906 0.0137,0.57031 0,0.14607 -0.0103,0.28982 -0.0117,0.43555 21.785,-3.16939 38.41406,-21.82641 38.41406,-44.51758 0,-0.23699 -0.014,-0.47093 -0.0176,-0.70703 z"
      />
</svg>
