<svg height="512" viewBox="0 0 58 59" width="512" xmlns="http://www.w3.org/2000/svg"><g id="023---Radio-Mast"><path id="Shape" d="m51 55h-44c-.53059053-.0028231-1.0395388.2101411-1.41.59-.56846165.5718399-.73793892 1.4291108-.42983461 2.1742425s1.03352322 1.2323721 1.83983461 1.2357575h44c.5305905.0028231 1.0395388-.2101411 1.41-.59.5684616-.5718399.7379389-1.4291108.4298346-2.1742425s-1.0335232-1.2323721-1.8398346-1.2357575z"/><path id="Shape" d="m29 45.21-9.43 7.79h18.86z"/><path id="Shape" d="m19.4 50.54 8.03-6.63-6.17-5.1z"/><path id="Shape" d="m36.74 38.8-6.17 5.11 8.03 6.63z"/><path id="Shape" d="m22.1 36.91 6.9 5.7 6.9-5.7-6.9-5.7z"/><path id="Shape" d="m27.43 29.92-4.22-3.49-1.26 8.01z"/><path id="Shape" d="m34.79 26.43-4.22 3.48 5.48 4.53z"/><path id="Shape" d="m31 17.5c0 3.35 1.95 6.11 4.46 6.46-3.2804671-3.6819687-3.2804671-9.2380313 0-12.92-2.51.35-4.46 3.11-4.46 6.46z"/><ellipse id="Oval" cx="40" cy="17.5" rx="5" ry="6.5"/><ellipse id="Oval" cx="20" cy="18" rx="3" ry="6"/><path id="Shape" d="m24 24c1.66 0 3-2.69 3-6s-1.34-6-3-6h-.59c2.127 3.041 2.127 8.958 0 12z"/><path id="Shape" d="m24 5c-.5522847 0-1 .44771525-1 1s.4477153 1 1 1h4v2h-2c-.5522847 0-1 .44771525-1 1 0 .5522847.4477153 1 1 1h2v2c0 .5522847.4477153 1 1 1s1-.4477153 1-1v-2h2c.5522847 0 1-.4477153 1-1 0-.55228475-.4477153-1-1-1h-2v-2h4c.5522847 0 1-.44771525 1-1s-.4477153-1-1-1h-4v-2h2c.5522847 0 1-.44771525 1-1s-.4477153-1-1-1h-2c0-.55228475-.4477153-1-1-1s-1 .44771525-1 1h-2c-.5522847 0-1 .44771525-1 1s.4477153 1 1 1h2v2z"/><path id="Shape" d="m8.968.843c-5.68213243 4.739823-8.96694493 11.7575033-8.96694493 19.157s3.2848125 14.417177 8.96694493 19.157c.27335627.2350859.65209531.3048236.99125786.1825215.33916254-.1223021.58623134-.4177063.64664284-.773149.0604115-.3554426-.0751887-.7158857-.3549007-.9433725-5.22789642-4.359821-8.25024253-10.8157289-8.25024253-17.623s3.02234611-13.26317899 8.25024253-17.623c.279712-.22748681.4153122-.58792985.3549007-.94337253s-.3074803-.65084683-.64664284-.77314894c-.33916255-.12230212-.71790159-.05256446-.99125786.18252147z"/><path id="Shape" d="m11.812 3.662c-4.94003326 3.98492989-7.81178011 9.9910641-7.81178011 16.338s2.87174685 12.3530701 7.81178011 16.338c.2771935.2322175.6581597.2966971.996332.1686318.3381722-.1280652.5808619-.4287222.6347005-.786301s-.0895621-.7163672-.3750325-.9383308c-4.46984378-3.6052338-7.06830915-9.039421-7.06830915-14.782s2.59846537-11.17676623 7.06830915-14.782c.2854704-.2219636.4288711-.580752.3750325-.9383308-.0538386-.35757879-.2965283-.65823575-.6347005-.78630101-.3381723-.12806525-.7191385-.06358571-.996332.16863181z"/><path id="Shape" d="m15.9 8.083c.4085141-.34504337.4732958-.9504093.1470439-1.37408179-.3262519-.42367248-.9280767-.51571355-1.3660439-.20891821-4.2115038 3.2125269-6.68293786 8.2061053-6.68293786 13.503s2.47143406 10.2904731 6.68293786 13.503c.4387902.3366176 1.0673824.2537902 1.404-.185s.2537902-1.0673824-.185-1.404c-3.7180334-2.8344338-5.90010396-7.2417687-5.90010396-11.917s2.18207056-9.0825662 5.90010396-11.917z"/><path id="Shape" d="m49.032.843c-.2733563-.23508593-.6520953-.30482359-.9912579-.18252147-.3391625.12230211-.5862313.41770626-.6466428.77314894s.0751887.71588572.3549007.94337253c5.2278964 4.35982101 8.2502425 10.8157289 8.2502425 17.623s-3.0223461 13.263179-8.2502425 17.623c-.279712.2274868-.4153122.5879299-.3549007.9433725.0604115.3554427.3074803.6508469.6466428.773149.3391626.1223021.7179016.0525644.9912579-.1825215 5.6821324-4.739823 8.9669449-11.7575033 8.9669449-19.157s-3.2848125-14.417177-8.9669449-19.157z"/><path id="Shape" d="m44.932 34.782c-.4179122.350104-.4783821.9704376-.135951 1.3946597.3424312.424222.96156.4959849 1.391951.1613403 4.9400333-3.9849299 7.8117801-9.9910641 7.8117801-16.338s-2.8717468-12.35307011-7.8117801-16.338c-.2771935-.23221752-.6581597-.29669706-.996332-.16863181-.3381722.12806526-.5808619.42872222-.6347005.78630101-.0538386.3575788.0895621.7163672.3750325.9383308 4.4698438 3.60523377 7.0683092 9.039421 7.0683092 14.782s-2.5984654 11.1767662-7.0683092 14.782z"/><path id="Shape" d="m41.917 6.681c-.334904.43764655-.2526157 1.06375317.184 1.4 3.7180334 2.8344338 5.900104 7.2417687 5.900104 11.917s-2.1820706 9.0825662-5.900104 11.917c-.2965477.2128751-.4535372.5704257-.4095689.932811.0439684.3623853.2819078.672019.6207581.807801.3388504.1357819.7247655.0761352 1.0068108-.155612 4.2115038-3.2125269 6.6829379-8.2061053 6.6829379-13.503s-2.4714341-10.2904731-6.6829379-13.503c-.2107007-.16115628-.4767993-.23199338-.7397368-.19692253-.2629376.03507084-.5011673.17317569-.6622632.38392253z"/></g></svg>